<?xml version="1.0" encoding="UTF-8" standalone="no"?>
<svg width="333px" height="123px" viewBox="0 0 333 123" version="1.1" xmlns="http://www.w3.org/2000/svg" xmlns:xlink="http://www.w3.org/1999/xlink" xmlns:sketch="http://www.bohemiancoding.com/sketch/ns">
    <!-- Generator: Sketch 3.2.2 (9983) - http://www.bohemiancoding.com/sketch -->
    <title>style-tile-3</title>
    <desc>Created with Sketch.</desc>
    <defs></defs>
    <g id="Page-1" stroke="none" stroke-width="1" fill="none" fill-rule="evenodd" sketch:type="MSPage">
        <g id="Header-2" sketch:type="MSLayerGroup">
            <path d="M179.838069,31.1664057 C181.468394,31.1664057 182.748979,30.1680094 183.679825,28.1694245 C184.610671,26.1726321 185.07699,23.4498962 185.07699,19.9958396 C185.07699,16.5453679 184.610671,13.8781981 183.679825,11.9961226 C182.748979,10.1158396 181.468394,9.17480189 179.838069,9.17480189 C178.207744,9.17480189 176.927159,10.1158396 175.996313,11.9961226 C175.065468,13.8781981 174.599148,16.5453679 174.599148,19.9958396 C174.599148,23.4498962 175.065468,26.1726321 175.996313,28.1694245 C176.927159,30.1680094 178.207744,31.1664057 179.838069,31.1664057 M179.838069,39.7755566 C177.547723,39.7755566 175.452872,39.3310283 173.551723,38.4383868 C171.64878,37.5457453 170.018455,36.2569717 168.660748,34.5702736 C167.30304,32.8835755 166.246647,30.8079151 165.489775,28.3450849 C164.732902,25.8822547 164.352672,23.1003679 164.352672,19.9958396 C164.352672,16.8948962 164.732902,14.130934 165.489775,11.7057453 C166.246647,9.28234906 167.30304,7.24612264 168.660748,5.59706604 C170.018455,3.94980189 171.64878,2.69866981 173.551723,1.84546226 C175.452872,0.992254717 177.547723,0.565650943 179.838069,0.565650943 C182.128416,0.565650943 184.223267,0.992254717 186.124416,1.84546226 C188.025565,2.69866981 189.65589,3.95876415 191.01539,5.62753774 C192.373098,7.29451887 193.429491,9.33074528 194.186364,11.736217 C194.943236,14.1398962 195.323466,16.8948962 195.323466,19.9958396 C195.323466,23.1003679 194.943236,25.8822547 194.186364,28.3450849 C193.429491,30.8079151 192.373098,32.8835755 191.01539,34.5702736 C189.65589,36.2569717 188.025565,37.5457453 186.124416,38.4383868 C184.223267,39.3310283 182.128416,39.7755566 179.838069,39.7755566" id="Fill-4" fill="#343434" sketch:type="MSShapeGroup"></path>
            <path d="M141.069516,115.773585 C142.272979,115.405415 143.406494,115.240509 144.475442,114.910698 C145.542596,114.580887 146.464474,114.010887 147.241076,113.195321 C148.015884,112.379755 148.636447,111.255887 149.102767,109.820132 C149.569087,108.38617 149.800453,106.563245 149.800453,104.353151 C149.800453,102.143057 149.569087,100.338057 149.102767,98.9417358 C148.636447,97.5454151 148.015884,96.4609811 147.241076,95.6848491 C146.464474,94.908717 145.542596,94.3763585 144.475442,94.0841887 C143.406494,93.7938113 142.272979,94.2641509 141.069516,94.2641509 L140.926391,94.2641509 L140.926391,115.773585 L141.069516,115.773585 Z M130.165171,85.3018868 L141.593228,85.3018868 C144.310437,85.3018868 146.792692,85.9697547 149.045374,86.6670189 C151.294469,87.3660755 153.236869,88.4702264 154.865401,89.9830566 C156.495726,91.4958868 157.76555,93.4353208 158.67846,95.8013585 C159.589577,98.1673962 160.046929,101.017396 160.046929,104.353151 C160.046929,107.688906 159.600338,110.558623 158.707157,112.962302 C157.813975,115.367774 156.56388,117.344849 154.953284,118.897113 C153.342688,120.447585 151.450507,121.592962 149.27674,122.32966 C147.104767,123.066358 144.737298,122.943396 142.176128,122.943396 L130.165171,122.943396 L130.165171,85.3018868 Z" id="Fill-9" fill="#343434" sketch:type="MSShapeGroup"></path>
            <path d="M181.992645,106.811321 L181.409745,105.051849 C180.982884,103.227132 180.538087,101.250057 180.071767,99.1170377 C179.605447,96.9840189 179.140921,94.9675094 178.674602,92.4716981 L178.441442,92.4716981 C178.01458,95.0069434 177.576957,97.0324151 177.13216,99.145717 C176.685569,101.260811 176.247946,103.227132 175.821085,105.051849 L175.239979,106.811321 L181.992645,106.811321 Z M183.796943,115.773585 L173.435681,115.773585 L171.572196,122.943396 L161.327514,122.943396 L172.736201,85.3018868 L184.844368,85.3018868 L196.25485,122.943396 L185.660428,122.943396 L183.796943,115.773585 Z" id="Fill-10" fill="#343434" sketch:type="MSShapeGroup"></path>
            <path d="M130.165171,1.05660377 L141.068798,1.05660377 L147.414331,18.1340189 L150.499215,26.1509434 L150.732375,26.1509434 C150.615795,25.6210943 150.479486,24.5151509 150.325242,23.3124151 C150.169204,22.1114717 150.01496,20.8782642 149.858922,19.6181698 C149.704678,18.3580755 149.577337,17.0979811 149.482279,15.8360943 C149.383635,14.5777925 149.894075,13.3643019 149.894075,12.201 L149.894075,1.05660377 L158.861759,1.05660377 L158.861759,38.6981132 L148.754103,38.6981132 L142.40857,22.1491132 L139.323687,13.6037736 L139.090527,13.6037736 C139.323687,15.886283 139.61424,18.2505283 139.96398,20.8101509 C140.311926,23.371566 140.926391,25.8146792 140.926391,28.141283 L140.926391,38.6981132 L130.165171,38.6981132 L130.165171,1.05660377 Z" id="Fill-3" fill="#343434" sketch:type="MSShapeGroup"></path>
            <path d="M210.874327,18.9811321 L214.065387,18.9811321 C218.100845,18.9811321 220.120368,16.816566 220.120368,13.4808113 C220.120368,11.8514717 219.605623,10.7276038 218.577926,10.1056226 C217.548436,9.48722642 216.045452,10.0188679 214.065387,10.0188679 L210.874327,10.0188679 L210.874327,18.9811321 Z M220.818054,38.6981132 L214.298547,26.1509434 L210.874327,26.1509434 L210.874327,38.6981132 L200.113106,38.6981132 L200.113106,1.05660377 L214.764867,1.05660377 C216.782596,1.05660377 218.712441,1.45883019 220.556197,1.84420755 C222.399953,2.23316981 224.010549,2.89279245 225.387985,3.82307547 C226.765422,4.75335849 227.863066,6.00449057 228.677332,7.57467925 C229.491597,9.14666038 229.89873,11.1147736 229.89873,13.4808113 C229.89873,16.1963774 229.346321,18.4459057 228.239709,20.2293962 C227.13489,22.0128868 225.649842,23.4092075 223.78815,24.4183585 L231.995375,38.6981132 L220.818054,38.6981132 Z" id="Fill-5" fill="#343434" sketch:type="MSShapeGroup"></path>
            <path d="M245.732073,31.5283019 C246.935536,31.0498962 248.069052,30.8849906 249.138,30.5551792 C250.205154,30.2253679 251.127032,29.6535755 251.903633,28.8398019 C252.678441,28.0242358 253.299005,26.9003679 253.765325,25.4646132 C254.231644,24.0306509 254.46301,22.2077264 254.46301,19.9958396 C254.46301,17.7857453 254.231644,15.9825377 253.765325,14.586217 C253.299005,13.1898962 252.678441,12.1036698 251.903633,11.3275377 C251.127032,10.5531981 250.205154,10.0190472 249.138,9.72866981 C248.069052,9.43829245 246.935536,10.0188679 245.732073,10.0188679 L244.951526,10.0188679 L244.951526,31.5283019 L245.732073,31.5283019 Z M235.983842,1.05660377 L246.255786,1.05660377 C248.972994,1.05660377 251.455249,1.6124434 253.707931,2.3115 C255.957027,3.00876415 257.899427,4.11470755 259.527958,5.62753774 C261.158283,7.13857547 262.428107,9.07800943 263.341018,11.4440472 C264.252134,13.8100849 264.709486,16.6618774 264.709486,19.9958396 C264.709486,23.3333868 264.262896,26.2031038 263.369714,28.606783 C262.476533,31.0122547 261.226438,32.9893302 259.615842,34.5398019 C258.005246,36.092066 256.113064,37.2374434 253.939298,37.9741415 C251.767325,38.7108396 249.399856,38.6981132 246.838685,38.6981132 L235.983842,38.6981132 L235.983842,1.05660377 Z" id="Fill-6" fill="#343434" sketch:type="MSShapeGroup"></path>
            <path d="M270.061041,31.5283019 L279.028725,31.5283019 L279.028725,10.0188679 L270.061041,10.0188679 L270.061041,1.05660377 L296.964093,1.05660377 L296.964093,10.0188679 L287.996409,10.0188679 L287.996409,31.5283019 L296.964093,31.5283019 L296.964093,38.6981132 L270.061041,38.6981132 L270.061041,31.5283019 Z" id="Fill-7" fill="#343434" sketch:type="MSShapeGroup"></path>
            <path d="M302.344704,20.7735849 C301.556444,17.2822453 302.040699,14.4609245 303.011003,11.9963019 C303.981306,9.53526415 305.301349,7.45960377 306.969338,5.77290566 C308.637328,4.08441509 310.597663,2.79564151 312.848552,1.903 C315.101234,1.01215094 317.506367,0.565830189 320.067538,0.565830189 C322.513922,0.565830189 324.70383,1.06054717 326.646231,2.04818868 C328.586838,3.03762264 330.235098,4.17224528 331.594599,5.4520566 L326.122518,11.6198868 C325.229337,10.8437547 324.31822,10.243283 323.385581,9.81488679 C322.454735,9.38828302 321.349917,9.17498113 320.067538,9.17498113 C318.903532,9.17498113 317.816649,9.42771698 316.808681,9.93139623 C315.79892,10.4350755 314.925468,11.1538491 314.190118,12.0841321 C313.45118,13.0144151 312.868281,14.1597925 312.443213,15.5166792 C312.014557,16.8753585 311.801127,18.4061132 311.801127,20.1125283 C311.801127,23.6813019 312.617186,26.4165849 314.245717,28.3165849 C315.876042,30.2165849 317.972687,31.1665849 320.533857,31.1665849 C321.774985,31.1665849 322.890565,30.8851698 323.880597,30.3223396 C324.870629,29.7613019 325.772778,29.033566 326.587044,28.1409245 L332.059125,34.1922453 C330.4288,36.0528113 328.586838,37.4491321 326.529651,38.3794151 C324.472464,39.3114906 322.280762,39.7757358 319.952751,39.7757358 C317.468703,39.7757358 315.120963,39.3778113 312.907739,38.5837547 C310.696308,37.7896981 308.746733,36.5869623 307.057222,34.9773396 C305.369504,33.367717 304.031525,31.3512075 303.041493,28.9260189 C302.051461,26.5026226 302.344704,23.6813019 302.344704,20.7735849 L302.344704,20.7735849 Z" id="Fill-8" fill="#343434" sketch:type="MSShapeGroup"></path>
            <path d="M205.493716,110.925717 L193.226104,85.3018868 L203.937106,85.3018868 L207.079382,93.881283 C207.583366,95.3564717 208.089143,96.7814717 208.593127,98.156283 C209.097111,99.5346792 209.622617,100.977604 210.166059,103.226415 L210.399219,103.226415 C210.940867,100.977604 211.475341,99.5346792 211.999054,98.156283 C212.522766,96.7814717 213.055447,95.3564717 213.600682,93.881283 L216.742959,85.3018868 L227.222594,85.3018868 L214.4614,110.925717 L214.4614,122.943396 L205.493716,122.943396 L205.493716,110.925717 Z" id="Fill-11" fill="#343434" sketch:type="MSShapeGroup"></path>
            <path d="M130.165171,44.0754717 L140.926391,44.0754717 L140.926391,58.4150943 L149.894075,58.4150943 L149.894075,44.0754717 L158.861759,44.0754717 L158.861759,81.7169811 L149.894075,81.7169811 L149.894075,65.5849057 L140.926391,65.5849057 L140.926391,81.7169811 L130.165171,81.7169811 L130.165171,44.0754717 Z" id="Fill-12" fill="#FFFFFF" sketch:type="MSShapeGroup"></path>
            <path d="M183.156471,65.5849057 L182.573571,62.8738208 C182.14671,61.0491038 181.701913,59.0720283 181.235593,56.9390094 C180.769273,54.8059906 180.304747,52.7894811 179.838428,51.245283 L179.605268,51.245283 C179.178406,52.8289151 178.740783,54.8543868 178.295986,56.9676887 C177.849396,59.082783 177.411773,61.0491038 176.984911,62.8738208 L176.403805,65.5849057 L183.156471,65.5849057 Z M184.960769,72.754717 L174.599507,72.754717 L172.736022,81.7169811 L162.49134,81.7169811 L173.900027,44.0754717 L186.008194,44.0754717 L197.418676,81.7169811 L186.824254,81.7169811 L184.960769,72.754717 Z" id="Fill-13" fill="#FFFFFF" sketch:type="MSShapeGroup"></path>
            <path d="M218.048474,42.2830189 C220.17794,42.7435 222.371436,43.238217 224.312043,44.2276509 C226.252649,45.2170849 227.90091,46.3499151 229.260411,47.6297264 L223.78833,53.7975566 C222.895148,53.0214245 221.984032,52.4209528 221.051393,51.9925566 C220.120547,51.5677453 219.013935,51.3544434 217.73335,51.3544434 C216.569344,51.3544434 215.482461,51.6071792 214.474493,52.109066 C213.464732,52.6145377 212.59128,53.3315189 211.854136,54.2635943 C211.116992,55.1938774 210.534093,56.3374623 210.107231,57.6943491 C209.680369,59.0530283 209.466938,60.5855755 209.466938,62.2901981 C209.466938,65.8589717 210.282998,68.5942547 211.911529,70.4942547 C213.541854,72.3942547 215.638499,73.3442547 218.199669,73.3442547 C219.440797,73.3442547 220.556376,73.0628396 221.546409,72.5000094 C222.536441,71.9389717 223.43859,71.2112358 224.252856,70.3185943 L229.724937,76.3699151 C228.094612,78.2304811 226.252649,79.6268019 224.195463,80.5588774 C222.138276,81.4891604 219.94478,81.9534057 217.61677,81.9534057 C215.132721,81.9534057 212.784982,81.5554811 210.573551,80.7614245 C208.36212,79.9673679 206.410752,78.7646321 204.723034,77.1568019 C203.035315,75.5453868 201.697337,73.5288774 200.707305,71.1054811 C199.717272,68.6802925 199.222256,65.8589717 199.222256,62.6397264 C199.222256,59.4599151 199.706511,56.6385943 200.676815,54.1757642 C201.647118,51.712934 202.967161,49.6372736 204.63515,47.9505755 C206.304933,46.2638774 208.263475,44.9733113 210.514364,44.0806698 C212.765253,43.1898208 215.172179,42.2830189 218.048474,42.2830189 L218.048474,42.2830189 Z" id="Fill-14" fill="#FFFFFF" sketch:type="MSShapeGroup"></path>
            <path d="M234.190305,44.0754717 L244.951526,44.0754717 L244.951526,58.4150943 L244.801586,58.4150943 L254.115423,44.0754717 L265.116978,44.0754717 L253.998843,58.7993962 L266.049617,81.7169811 L255.046269,81.7169811 L248.178816,66.7130755 L244.951526,71.8323208 L244.951526,81.7169811 L234.190305,81.7169811 L234.190305,44.0754717 Z" id="Fill-15" fill="#FFFFFF" sketch:type="MSShapeGroup"></path>
            <path d="M115.862611,45.4558396 L115.955875,40.5463113 L106.74427,40.3724434 C107.483207,39.1750849 108.180893,37.9813113 108.817599,36.7947075 L103.404705,33.8927264 C102.66218,35.2765 101.822805,36.681783 100.92245,38.0924434 L98.7289542,31.9013113 L94.0962487,33.5414057 L97.4824461,43.0969717 C97.3479309,43.2798019 97.2098285,43.4626321 97.0735197,43.6454623 L92.6381032,34.5326321 L88.2188285,36.681783 L93.649658,47.8380094 L93.9025467,47.7161226 C93.041649,48.7754623 92.162816,49.8258396 91.2696346,50.8690472 L86.4755108,41.4497075 L82.0956939,43.6777264 L87.7686508,54.826783 C87.1158034,55.5455566 86.4611625,56.2571604 85.804728,56.9580094 L81.0141912,48.6697075 L76.7599219,51.1271604 L82.2624928,60.6504623 C81.8356311,61.0860283 81.4087693,61.5198019 80.9837011,61.9464057 L75.7842379,52.9465 L71.528175,55.4021604 L77.3697244,65.5080094 C77.104281,65.7643302 76.8406311,66.0206509 76.5787747,66.2715943 L72.7782702,59.6915 L68.5222074,62.1471604 L72.9056113,69.7328208 C70.3964533,72.0558396 68.2298609,73.980934 66.6192648,75.3826321 C64.3468537,70.7061226 62.1677065,66.0780094 60.1033456,61.5771604 L68.4414982,58.6249906 L66.8022056,53.9950849 L58.0640943,57.0888585 C57.4309758,55.681783 56.8086185,54.2926321 56.2006095,52.9196132 L65.2812864,49.7057453 L63.6402002,45.0758396 L54.2169578,48.4115943 C54.1488034,48.2556509 54.080649,48.1015 54.0142882,47.9455566 L64.5871876,42.6560283 L62.3883115,38.2645189 L52.0629201,43.4285755 C51.5768716,42.2957453 51.1015844,41.1808396 50.6406454,40.0892358 L51.5105108,41.3188585 L61.0808232,34.5487642 L58.2434479,30.5390472 L49.2865251,36.8753679 C48.9690691,36.1135755 48.6569937,35.3661226 48.3520925,34.631217 L56.8731858,28.0780094 L53.8743923,24.1848019 L46.4132792,29.9224434 C45.9451661,28.7716887 45.4967819,27.6657453 45.0681266,26.6046132 L54.8733923,20.7934811 L52.3660278,16.5686698 L43.2243707,21.9854623 C42.8441409,21.0229151 42.4890206,20.1213113 42.1608034,19.2788585 L48.2731768,12.2363113 L44.5605557,9.01885849 L40.1574228,14.0897075 C39.6139811,12.6575377 39.3108734,11.8401792 39.2839704,11.7648962 L33.5177496,13.8835755 C33.5518268,13.976783 33.9984174,15.1813113 34.8037154,17.2874434 L28.2913833,16.5632925 L27.7479417,21.4441415 L36.8070961,22.4515 C37.0833007,23.1577264 37.3774408,23.9015943 37.6877226,24.6831038 L28.6034587,26.2873491 L29.4571822,31.1233868 L39.5512074,29.3416887 C39.874044,30.1411226 40.2058483,30.9584811 40.5520009,31.8081038 L30.3467765,35.9773491 L32.2066741,40.5248019 L42.4190727,36.3519717 C42.9589273,37.6532925 43.5185108,38.9976321 44.0996167,40.3814057 L31.6130135,43.3425377 L32.7483223,48.1194245 L46.0438106,44.9665 C46.1012038,45.100934 46.1585969,45.2353679 46.2159901,45.3698019 L32.8989794,50.7184811 L34.731974,55.2748962 L48.1619776,49.8814057 C48.4381822,50.5141415 48.7143869,51.1486698 48.9959722,51.7921604 L38.7925413,58.7504623 L41.5617621,62.806783 L51.0137011,56.3611226 C51.2360996,56.8576321 51.4584982,57.3577264 51.6826903,57.8596132 L44.1175521,63.0182925 L46.8867729,67.0746132 L53.7362899,62.4034811 C56.1216939,67.6392358 58.6667226,73.0631981 61.340886,78.5516887 C59.5258268,79.1575377 57.6192971,79.7311226 55.6446131,80.2742358 L50.4272145,70.921217 L46.135281,73.3141415 L50.7231481,81.5379151 C49.4838142,81.8336698 48.233719,82.1204623 46.967482,82.3947075 L41.0219075,71.736783 L36.729974,74.1297075 L41.9168824,83.4289528 C41.1922935,83.5687642 40.4677047,83.7049906 39.7413223,83.8394245 L33.9159147,73.3983868 L29.6239811,75.7895189 L34.6136005,84.7302736 C33.1213779,84.9758396 31.6452971,85.207066 30.1835646,85.4275377 L24.4657693,73.9271604 L20.0662235,76.1121604 L25.0612235,86.1606509 C23.4721499,86.3757453 21.9261212,86.5765 20.4267244,86.7611226 L15.2434031,76.2125377 L10.8313025,78.3778208 L15.2505772,87.3705566 C14.167281,87.4906509 13.1377908,87.5999906 12.1477585,87.7021604 L7.68364542,80.7223491 L3.54236894,83.366217 L6.65594883,88.2363113 C3.06528815,88.5589528 0.859237882,88.7095189 0.765973968,88.7148962 L1.16772621,94.8432925 C1.5228465,94.8181981 3.55133662,94.6819717 6.72769031,94.4041415 L5.45965978,100.236783 L10.2609578,101.279991 L11.8607926,93.9201792 C13.9664048,93.7086698 16.3177316,93.4541415 18.8376508,93.1583868 L15.6487424,102.855557 L20.3173187,104.389896 L24.230816,92.4880094 C24.9679596,92.391217 25.7158645,92.2908396 26.4709434,92.1868774 L24.2218483,102.748009 L29.0285269,103.7715 L31.6560583,91.4358396 C33.1841517,91.2028208 34.7301804,90.9536698 36.2905575,90.6937642 L35.4529758,101.095368 L40.3511248,101.487915 L41.2909381,89.8082925 C42.0549847,89.6648962 42.8190314,89.5197075 43.5830781,89.370934 L42.8423474,98.5751792 L47.7404964,98.9677264 L48.5960135,88.3295189 C49.3582666,88.1628208 50.1187262,87.9925377 50.8720117,87.8168774 L50.2173707,95.9635755 L55.1155197,96.3561226 L55.9028824,86.5675377 C58.758193,85.8111226 61.5040978,84.9901792 64.0814102,84.1029151 C72.9038178,101.749613 71.4797496,101.043387 81.8015539,114.9815 L86.7409542,111.330274 C76.5787747,97.6072547 78.1373582,98.5285755 69.4261499,81.0808396 C70.5829811,80.0949906 72.1971643,78.6950849 74.1467388,76.942066 L83.4856849,80.5269717 L85.2469381,75.9418774 L78.1947513,73.2352736 C78.4135628,73.0291415 78.641342,72.8140472 78.8655341,72.6043302 L88.9774946,76.486783 L90.7405413,71.9016887 L82.7862056,68.8473491 C83.4139434,68.2343302 84.0524425,67.6015943 84.6963223,66.9598962 L95.0970422,70.9516887 L96.8565018,66.3665943 L88.4412271,63.1348019 C88.7210189,62.8444245 88.9990171,62.5558396 89.2788088,62.2618774 L99.3423438,66.1264057 L101.10539,61.5413113 L92.8694695,58.3794245 C93.3626921,57.8327264 93.8523276,57.2806509 94.3419632,56.726783 L102.396737,60.1611226 L104.322996,55.6441415 L97.6851158,52.8138585 C98.1388806,52.2635755 98.5872648,51.7097075 99.0338555,51.1540472 L108.724335,53.7244245 L109.985191,48.976217 L102.289125,46.9364057 C102.710606,46.3664057 103.119532,45.7964057 103.523078,45.2246132 L115.862611,45.4558396 Z" id="Fill-16" fill="#343434" sketch:type="MSShapeGroup"></path>
        </g>
    </g>
</svg>