<?xml version="1.0" encoding="utf-8"?>
<!-- Generator: Adobe Illustrator 16.0.0, SVG Export Plug-In . SVG Version: 6.00 Build 0)  -->
<!DOCTYPE svg PUBLIC "-//W3C//DTD SVG 1.1//EN" "http://www.w3.org/Graphics/SVG/1.1/DTD/svg11.dtd">
<svg version="1.1" id="Layer_1" xmlns:sketch="http://www.bohemiancoding.com/sketch/ns"
	 xmlns="http://www.w3.org/2000/svg" xmlns:xlink="http://www.w3.org/1999/xlink" x="0px" y="0px" width="333px" height="123px"
	 viewBox="0 0 333 123" enable-background="new 0 0 333 123" xml:space="preserve">
<title>style-tile-3</title>
<desc>Created with Sketch.</desc>
<g id="Page-1" sketch:type="MSPage">
	<g id="Header-2" sketch:type="MSLayerGroup">
		<path id="Fill-4" sketch:type="MSShapeGroup" fill="#FFFFFF" d="M179.838,31.167c1.63,0,2.911-0.999,3.842-2.997
			c0.931-1.997,1.397-4.72,1.397-8.173c0-3.451-0.467-6.118-1.397-8c-0.931-1.88-2.212-2.821-3.842-2.821
			c-1.631,0-2.911,0.941-3.842,2.821c-0.931,1.882-1.397,4.549-1.397,8c0,3.454,0.467,6.177,1.397,8.173
			C176.927,30.168,178.207,31.167,179.838,31.167 M179.838,39.775c-2.29,0-4.386-0.444-6.286-1.337
			c-1.903-0.893-3.533-2.182-4.892-3.868c-1.357-1.687-2.414-3.762-3.171-6.225s-1.137-5.245-1.137-8.349
			c0-3.101,0.38-5.865,1.137-8.291c0.757-2.423,1.813-4.459,3.171-6.108c1.358-1.647,2.988-2.898,4.892-3.751
			c1.9-0.854,3.996-1.28,6.286-1.28s4.385,0.427,6.286,1.28c1.901,0.853,3.531,2.113,4.892,3.782
			c1.357,1.667,2.414,3.703,3.171,6.109c0.757,2.403,1.137,5.159,1.137,8.26c0,3.104-0.38,5.886-1.137,8.349
			s-1.813,4.539-3.171,6.225c-1.36,1.687-2.99,2.976-4.892,3.868S182.128,39.775,179.838,39.775"/>
		<path id="Fill-9" sketch:type="MSShapeGroup" fill="#FFFFFF" d="M141.07,115.773c1.203-0.368,2.337-0.533,3.406-0.863
			c1.066-0.329,1.988-0.899,2.766-1.715c0.774-0.815,1.395-1.939,1.861-3.375c0.466-1.434,0.697-3.257,0.697-5.467
			c0-2.211-0.231-4.016-0.697-5.412c-0.467-1.396-1.087-2.48-1.861-3.256c-0.777-0.777-1.699-1.309-2.766-1.602
			c-1.069-0.29-2.203,0.18-3.406,0.18h-0.144v21.51H141.07z M130.165,85.302h11.428c2.718,0,5.199,0.668,7.452,1.365
			c2.249,0.699,4.191,1.804,5.82,3.315c1.63,1.514,2.9,3.453,3.812,5.818c0.911,2.367,1.369,5.217,1.369,8.553
			s-0.447,6.205-1.34,8.609c-0.894,2.404-2.144,4.382-3.754,5.934c-1.61,1.551-3.503,2.696-5.677,3.434
			c-2.172,0.736-4.539,0.613-7.101,0.613h-12.011V85.302z"/>
		<path id="Fill-10" sketch:type="MSShapeGroup" fill="#FFFFFF" d="M181.992,106.812l-0.583-1.76
			c-0.427-1.825-0.871-3.802-1.338-5.935c-0.466-2.133-0.931-4.149-1.396-6.646h-0.233c-0.427,2.535-0.864,4.561-1.31,6.674
			c-0.446,2.115-0.884,4.081-1.311,5.906l-0.582,1.76H181.992z M183.797,115.773h-10.361l-1.863,7.17h-10.245l11.409-37.642h12.107
			l11.411,37.642H185.66L183.797,115.773z"/>
		<path id="Fill-3" sketch:type="MSShapeGroup" fill="#FFFFFF" d="M130.165,1.057h10.903l6.346,17.077l3.085,8.017h0.233
			c-0.117-0.53-0.253-1.636-0.407-2.838c-0.156-1.201-0.311-2.434-0.467-3.694c-0.154-1.26-0.281-2.52-0.376-3.782
			c-0.099-1.258,0.411-2.472,0.411-3.635V1.057h8.968v37.642h-10.107l-6.346-16.549l-3.085-8.545h-0.233
			c0.233,2.283,0.524,4.647,0.874,7.207c0.348,2.562,0.962,5.004,0.962,7.331v10.557h-10.761V1.057z"/>
		<path id="Fill-5" sketch:type="MSShapeGroup" fill="#FFFFFF" d="M210.874,18.981h3.191c4.035,0,6.055-2.165,6.055-5.5
			c0-1.629-0.515-2.753-1.542-3.375c-1.03-0.618-2.533-0.086-4.513-0.086h-3.191V18.981z M220.818,38.698l-6.52-12.547h-3.424
			v12.547h-10.761V1.057h14.651c2.018,0,3.947,0.402,5.791,0.788c1.844,0.389,3.455,1.048,4.832,1.979
			c1.378,0.93,2.476,2.181,3.289,3.751c0.814,1.572,1.222,3.54,1.222,5.906c0,2.715-0.553,4.965-1.659,6.749
			c-1.104,1.783-2.59,3.18-4.451,4.189l8.207,14.28H220.818z"/>
		<path id="Fill-6" sketch:type="MSShapeGroup" fill="#FFFFFF" d="M245.732,31.528c1.204-0.479,2.337-0.644,3.406-0.973
			c1.067-0.33,1.989-0.902,2.766-1.715c0.774-0.815,1.396-1.939,1.861-3.375c0.467-1.434,0.698-3.257,0.698-5.469
			c0-2.21-0.231-4.014-0.698-5.41c-0.466-1.396-1.087-2.483-1.861-3.259c-0.776-0.774-1.698-1.309-2.766-1.599
			c-1.069-0.29-2.202,0.291-3.406,0.291h-0.78v21.509H245.732z M235.984,1.057h10.272c2.717,0,5.199,0.556,7.452,1.255
			c2.249,0.697,4.191,1.803,5.819,3.316c1.631,1.511,2.9,3.451,3.813,5.816c0.911,2.366,1.368,5.218,1.368,8.552
			c0,3.337-0.446,6.207-1.34,8.611c-0.893,2.405-2.143,4.382-3.754,5.933c-1.61,1.552-3.502,2.697-5.676,3.434
			c-2.173,0.737-4.54,0.724-7.101,0.724h-10.855V1.057z"/>
		<path id="Fill-7" sketch:type="MSShapeGroup" fill="#FFFFFF" d="M270.061,31.528h8.968V10.019h-8.968V1.057h26.903v8.962h-8.968
			v21.509h8.968v7.17h-26.903V31.528z"/>
		<path id="Fill-8" sketch:type="MSShapeGroup" fill="#FFFFFF" d="M302.345,20.773c-0.788-3.491-0.305-6.312,0.666-8.777
			c0.971-2.461,2.29-4.537,3.958-6.223c1.668-1.688,3.629-2.977,5.879-3.87c2.253-0.891,4.658-1.337,7.22-1.337
			c2.446,0,4.636,0.495,6.578,1.482c1.94,0.989,3.589,2.124,4.948,3.404l-5.472,6.168c-0.894-0.776-1.805-1.377-2.737-1.805
			c-0.931-0.427-2.035-0.64-3.317-0.64c-1.164,0-2.251,0.253-3.259,0.757c-1.01,0.503-1.884,1.222-2.619,2.152
			c-0.738,0.931-1.321,2.076-1.747,3.433c-0.429,1.359-0.642,2.89-0.642,4.596c0,3.569,0.816,6.304,2.444,8.204
			c1.631,1.9,3.728,2.85,6.288,2.85c1.241,0,2.356-0.281,3.347-0.844c0.99-0.561,1.893-1.289,2.707-2.181l5.472,6.051
			c-1.63,1.86-3.473,3.257-5.529,4.187c-2.058,0.932-4.249,1.396-6.577,1.396c-2.484,0-4.832-0.398-7.045-1.192
			c-2.211-0.794-4.161-1.997-5.851-3.606c-1.688-1.61-3.025-3.626-4.016-6.052C302.051,26.502,302.345,23.681,302.345,20.773
			L302.345,20.773z"/>
		<path id="Fill-11" sketch:type="MSShapeGroup" fill="#FFFFFF" d="M205.493,110.926l-12.268-25.624h10.711l3.143,8.579
			c0.504,1.476,1.01,2.9,1.514,4.275c0.504,1.379,1.029,2.821,1.573,5.07h0.233c0.541-2.249,1.075-3.691,1.6-5.07
			c0.523-1.375,1.057-2.8,1.602-4.275l3.143-8.579h10.479l-12.762,25.624v12.018h-8.968V110.926z"/>
		<path id="Fill-12" sketch:type="MSShapeGroup" fill="#FFFFFF" d="M130.165,44.075h10.761v14.34h8.968v-14.34h8.968v37.642h-8.968
			V65.585h-8.968v16.132h-10.761V44.075z"/>
		<path id="Fill-13" sketch:type="MSShapeGroup" fill="#FFFFFF" d="M183.156,65.585l-0.583-2.711
			c-0.427-1.825-0.871-3.802-1.338-5.935c-0.467-2.133-0.931-4.149-1.397-5.694h-0.232c-0.428,1.584-0.865,3.609-1.31,5.723
			c-0.446,2.115-0.885,4.081-1.312,5.906l-0.581,2.711H183.156z M184.961,72.755H174.6l-1.864,8.962h-10.244L173.9,44.075h12.108
			l11.41,37.642h-10.594L184.961,72.755z"/>
		<path id="Fill-14" sketch:type="MSShapeGroup" fill="#FFFFFF" d="M218.048,42.283c2.13,0.46,4.323,0.955,6.264,1.944
			c1.94,0.99,3.589,2.123,4.948,3.402l-5.472,6.167c-0.894-0.776-1.805-1.376-2.737-1.805c-0.931-0.425-2.037-0.638-3.317-0.638
			c-1.164,0-2.251,0.253-3.259,0.754c-1.01,0.506-1.884,1.223-2.621,2.155c-0.736,0.93-1.319,2.074-1.746,3.431
			c-0.428,1.359-0.641,2.891-0.641,4.596c0,3.569,0.816,6.304,2.444,8.204c1.631,1.9,3.728,2.85,6.288,2.85
			c1.241,0,2.356-0.281,3.347-0.844c0.99-0.561,1.893-1.289,2.707-2.182l5.472,6.052c-1.63,1.86-3.473,3.257-5.529,4.188
			c-2.058,0.931-4.251,1.395-6.579,1.395c-2.483,0-4.831-0.397-7.043-1.191c-2.211-0.795-4.163-1.997-5.851-3.605
			c-1.688-1.611-3.025-3.627-4.016-6.051c-0.99-2.426-1.485-5.246-1.485-8.466c0-3.18,0.484-6.001,1.455-8.464
			c0.97-2.463,2.29-4.539,3.958-6.225c1.67-1.687,3.629-2.978,5.879-3.87C212.765,43.19,215.172,42.283,218.048,42.283
			L218.048,42.283z"/>
		<path id="Fill-15" sketch:type="MSShapeGroup" fill="#FFFFFF" d="M234.191,44.075h10.761v14.34h-0.149l9.313-14.34h11.002
			l-11.118,14.724l12.051,22.917h-11.004l-6.867-15.004l-3.228,5.119v9.885h-10.761V44.075z"/>
		<path id="Fill-16" sketch:type="MSShapeGroup" fill="#FFFFFF" d="M115.863,45.456l0.094-4.91l-9.212-0.174
			c0.739-1.197,1.437-2.391,2.073-3.578l-5.413-2.902c-0.742,1.384-1.582,2.789-2.482,4.2l-2.193-6.191l-4.633,1.64l3.387,9.556
			c-0.135,0.183-0.272,0.366-0.409,0.548l-4.436-9.113l-4.419,2.149l5.431,11.156l0.253-0.122c-0.861,1.059-1.74,2.109-2.633,3.153
			l-4.794-9.419l-4.38,2.228l5.673,11.149c-0.653,0.719-1.308,1.431-1.964,2.131l-4.791-8.288l-4.254,2.457l5.503,9.523
			c-0.428,0.436-0.854,0.869-1.279,1.296l-5.199-9l-4.256,2.456l5.841,10.105c-0.265,0.256-0.528,0.513-0.791,0.764l-3.8-6.58
			l-4.257,2.455l4.384,7.586c-2.509,2.323-4.676,4.248-6.286,5.65c-2.272-4.677-4.452-9.305-6.516-13.806l8.338-2.952l-1.64-4.63
			l-8.738,3.094c-0.633-1.407-1.255-2.796-1.863-4.169l9.081-3.214l-1.642-4.63l-9.423,3.336c-0.068-0.156-0.137-0.31-0.203-0.466
			l10.573-5.289l-2.199-4.392l-10.325,5.164c-0.486-1.133-0.961-2.248-1.422-3.339l0.87,1.229l9.57-6.77l-2.838-4.01l-8.957,6.336
			c-0.317-0.762-0.629-1.509-0.935-2.244l8.521-6.553l-2.999-3.894l-7.461,5.738c-0.468-1.151-0.917-2.256-1.345-3.318l9.805-5.811
			l-2.507-4.225l-9.142,5.417c-0.381-0.962-0.735-1.864-1.064-2.707l6.112-7.042l-3.712-3.217l-4.403,5.071
			c-0.544-1.432-0.847-2.25-0.873-2.325l-5.767,2.119c0.034,0.093,0.48,1.297,1.286,3.404l-6.513-0.724l-0.543,4.881l9.059,1.007
			c0.276,0.706,0.57,1.45,0.881,2.231l-9.084,1.604l0.854,4.836l10.094-1.782c0.323,0.799,0.655,1.617,1.001,2.466l-10.205,4.169
			l1.859,4.547l10.213-4.173c0.54,1.301,1.1,2.646,1.681,4.029l-12.487,2.961l1.136,4.777l13.296-3.153
			c0.057,0.135,0.114,0.269,0.172,0.403l-13.317,5.349l1.833,4.556l13.431-5.394c0.275,0.633,0.552,1.267,0.834,1.911L38.792,58.75
			l2.77,4.056l9.452-6.445c0.223,0.496,0.444,0.997,0.669,1.498l-7.565,5.159l2.77,4.056l6.85-4.671
			c2.385,5.235,4.93,10.66,7.604,16.148c-1.815,0.606-3.722,1.179-5.696,1.723l-5.218-9.353l-4.292,2.393l4.588,8.224
			c-1.239,0.296-2.489,0.583-3.756,0.856l-5.945-10.658L36.73,74.13l5.188,9.299c-0.725,0.14-1.449,0.276-2.176,0.411l-5.825-10.441
			l-4.292,2.391l4.989,8.941c-1.492,0.245-2.968,0.477-4.43,0.697l-5.718-11.5l-4.399,2.185l4.994,10.048
			c-1.589,0.216-3.135,0.416-4.634,0.602l-5.184-10.549l-4.412,2.165l4.419,8.993c-1.083,0.119-2.112,0.229-3.103,0.331
			l-4.464-6.979l-4.142,2.644l3.113,4.87c-3.59,0.322-5.796,0.473-5.89,0.479l0.402,6.129c0.354-0.025,2.383-0.162,5.56-0.439
			l-1.269,5.832l4.802,1.043l1.6-7.359c2.105-0.211,4.457-0.466,6.978-0.762l-3.189,9.697l4.669,1.534l3.913-11.901
			c0.737-0.098,1.485-0.197,2.24-0.301l-2.249,10.561l4.807,1.023l2.628-12.336c1.527-0.232,3.073-0.482,4.634-0.742l-0.837,10.402
			l4.897,0.393l0.94-11.68c0.764-0.144,1.527-0.289,2.292-0.438l-0.741,9.204l4.898,0.393l0.855-10.638
			c0.763-0.167,1.522-0.338,2.276-0.514l-0.655,8.146l4.898,0.393l0.787-9.788c2.855-0.757,5.602-1.577,8.179-2.464
			c8.822,17.646,7.398,16.939,17.721,30.878l4.938-3.651c-10.162-13.723-8.604-12.802-17.314-30.249
			c1.157-0.986,2.771-2.386,4.721-4.14l9.339,3.586l1.762-4.586l-7.053-2.706c0.219-0.206,0.446-0.421,0.671-0.631l10.112,3.882
			l1.763-4.584l-7.954-3.055c0.628-0.613,1.266-1.246,1.91-1.888l10.4,3.991l1.76-4.584l-8.415-3.232
			c0.279-0.291,0.558-0.579,0.837-0.873l10.063,3.865l1.764-4.585l-8.236-3.162c0.493-0.547,0.983-1.099,1.473-1.653l8.055,3.435
			l1.926-4.517l-6.638-2.83c0.454-0.55,0.902-1.104,1.349-1.66l9.69,2.57l1.262-4.749l-7.696-2.04c0.421-0.57,0.83-1.14,1.233-1.712
			L115.863,45.456z"/>
	</g>
</g>
</svg>
